<svg xmlns="http://www.w3.org/2000/svg" width="2250" height="1200" viewBox="0 0 2250 1200">
  <defs>
    <style>
      .title { font-family: 'Inter', 'Arial', sans-serif; font-size: 24px; font-weight: 600; fill: #343a40; }
      .panel-title { font-family: 'Inter', 'Arial', sans-serif; font-size: 16px; font-weight: 600; fill: #495057; }
      .metric-value { font-family: 'Inter', 'Arial', sans-serif; font-size: 32px; font-weight: 700; }
      .metric-label { font-family: 'Inter', 'Arial', sans-serif; font-size: 12px; font-weight: 500; fill: #6c757d; text-transform: uppercase; }
      .axis-label { font-family: 'Inter', 'Arial', sans-serif; font-size: 11px; fill: #6c757d; }
      .value-label { font-family: 'Inter', 'Arial', sans-serif; font-size: 10px; fill: #343a40; }
      .table-header { font-family: 'Inter', 'Arial', sans-serif; font-size: 12px; font-weight: 600; fill: #495057; }
      .table-cell { font-family: 'Inter', 'Arial', sans-serif; font-size: 11px; fill: #6c757d; }
      .panel-bg { fill: white; stroke: #333; stroke-width: 1; }
      .bar-primary { fill: #666; opacity: 1; }
      .bar-success { fill: #666; opacity: 1; }
      .bar-warning { fill: #999; opacity: 1; }
      .bar-excellent { fill: #333; }
      .bar-good { fill: #666; }
      .bar-fair { fill: #999; }
      .bar-poor { fill: #ccc; }
    </style>
  </defs>
  
  <!-- Title -->
  <text x="1125" y="40" text-anchor="middle" class="title">Clinical TLF System Performance Metrics</text>
  
  <!-- Overall Performance Bar Chart (Academic Style) -->
  <rect x="50" y="80" width="1050" height="200" rx="12" class="panel-bg"/>
  <text x="575" y="110" text-anchor="middle" class="panel-title">System Performance Metrics</text>

  <!-- Chart axes -->
  <line x1="100" y1="140" x2="100" y2="250" stroke="#333" stroke-width="1"/>
  <line x1="100" y1="250" x2="1050" y2="250" stroke="#333" stroke-width="1"/>

  <!-- Y-axis labels -->
  <text x="90" y="145" text-anchor="end" class="axis-label">100%</text>
  <text x="90" y="175" text-anchor="end" class="axis-label">80%</text>
  <text x="90" y="205" text-anchor="end" class="axis-label">60%</text>
  <text x="90" y="235" text-anchor="end" class="axis-label">40%</text>
  <text x="90" y="255" text-anchor="end" class="axis-label">0%</text>

  <!-- Performance bars (academic style) -->
  <rect x="150" y="146" width="120" height="104" fill="#666" stroke="#333" stroke-width="1"/>
  <text x="210" y="135" text-anchor="middle" class="axis-label" font-weight="600">94.2%</text>
  <text x="210" y="270" text-anchor="middle" class="axis-label">Domain Detection</text>

  <rect x="320" y="158" width="120" height="92" fill="#666" stroke="#333" stroke-width="1"/>
  <text x="380" y="147" text-anchor="middle" class="axis-label" font-weight="600">91.7%</text>
  <text x="380" y="270" text-anchor="middle" class="axis-label">Template Compliance</text>

  <rect x="490" y="161" width="120" height="89" fill="#666" stroke="#333" stroke-width="1"/>
  <text x="550" y="150" text-anchor="middle" class="axis-label" font-weight="600">89.4%</text>
  <text x="550" y="270" text-anchor="middle" class="axis-label">Code Success Rate</text>

  <rect x="660" y="172" width="120" height="78" fill="#666" stroke="#333" stroke-width="1"/>
  <text x="720" y="161" text-anchor="middle" class="axis-label" font-weight="600">78.3%</text>
  <text x="720" y="270" text-anchor="middle" class="axis-label">Time Reduction</text>

  <!-- Error bars for confidence intervals -->
  <line x1="210" y1="140" x2="210" y2="130" stroke="#333" stroke-width="2"/>
  <line x1="205" y1="130" x2="215" y2="130" stroke="#333" stroke-width="1"/>
  <line x1="205" y1="140" x2="215" y2="140" stroke="#333" stroke-width="1"/>

  <line x1="380" y1="152" x2="380" y2="142" stroke="#333" stroke-width="2"/>
  <line x1="375" y1="142" x2="385" y2="142" stroke="#333" stroke-width="1"/>
  <line x1="375" y1="152" x2="385" y2="152" stroke="#333" stroke-width="1"/>

  <line x1="550" y1="155" x2="550" y2="145" stroke="#333" stroke-width="2"/>
  <line x1="545" y1="145" x2="555" y2="145" stroke="#333" stroke-width="1"/>
  <line x1="545" y1="155" x2="555" y2="155" stroke="#333" stroke-width="1"/>

  <line x1="720" y1="166" x2="720" y2="156" stroke="#333" stroke-width="2"/>
  <line x1="715" y1="156" x2="725" y2="156" stroke="#333" stroke-width="1"/>
  <line x1="715" y1="166" x2="725" y2="166" stroke="#333" stroke-width="1"/>
  
  <!-- Domain Performance Chart (Academic Style) -->
  <rect x="1150" y="80" width="1050" height="200" rx="12" class="panel-bg"/>
  <text x="1675" y="110" text-anchor="middle" class="panel-title">Performance by Clinical Domain</text>

  <!-- Chart axes -->
  <line x1="1200" y1="140" x2="1200" y2="250" stroke="#333" stroke-width="1"/>
  <line x1="1200" y1="250" x2="2150" y2="250" stroke="#333" stroke-width="1"/>

  <!-- Y-axis labels -->
  <text x="1190" y="145" text-anchor="end" class="axis-label">100%</text>
  <text x="1190" y="175" text-anchor="end" class="axis-label">80%</text>
  <text x="1190" y="205" text-anchor="end" class="axis-label">60%</text>
  <text x="1190" y="235" text-anchor="end" class="axis-label">40%</text>
  <text x="1190" y="255" text-anchor="end" class="axis-label">0%</text>

  <!-- Domain bars (uniform academic style) -->
  <rect x="1220" y="146" width="80" height="104" fill="#666" stroke="#333" stroke-width="1"/>
  <text x="1260" y="135" text-anchor="middle" class="value-label" font-weight="600">96.8%</text>
  <text x="1260" y="270" text-anchor="middle" class="axis-label">Demographics</text>

  <rect x="1320" y="157" width="80" height="93" fill="#666" stroke="#333" stroke-width="1"/>
  <text x="1360" y="146" text-anchor="middle" class="value-label" font-weight="600">93.4%</text>
  <text x="1360" y="270" text-anchor="middle" class="axis-label">Adverse Events</text>

  <rect x="1420" y="151" width="80" height="99" fill="#666" stroke="#333" stroke-width="1"/>
  <text x="1460" y="140" text-anchor="middle" class="value-label" font-weight="600">95.1%</text>
  <text x="1460" y="270" text-anchor="middle" class="axis-label">Vital Signs</text>

  <rect x="1520" y="159" width="80" height="91" fill="#666" stroke="#333" stroke-width="1"/>
  <text x="1560" y="148" text-anchor="middle" class="value-label" font-weight="600">92.7%</text>
  <text x="1560" y="270" text-anchor="middle" class="axis-label">Laboratory</text>

  <rect x="1620" y="162" width="80" height="88" fill="#666" stroke="#333" stroke-width="1"/>
  <text x="1660" y="151" text-anchor="middle" class="value-label" font-weight="600">91.2%</text>
  <text x="1660" y="270" text-anchor="middle" class="axis-label">Efficacy</text>

  <rect x="1720" y="165" width="80" height="85" fill="#666" stroke="#333" stroke-width="1"/>
  <text x="1760" y="154" text-anchor="middle" class="value-label" font-weight="600">89.6%</text>
  <text x="1760" y="270" text-anchor="middle" class="axis-label">ConMeds</text>

  <!-- Statistical significance indicators -->
  <text x="1675" y="125" text-anchor="middle" class="axis-label" font-size="10px">p &lt; 0.001 for all comparisons vs. baseline</text>
  
  <!-- User Study Results (Academic Bar Chart) -->
  <rect x="50" y="320" width="700" height="300" rx="12" class="panel-bg"/>
  <text x="400" y="350" text-anchor="middle" class="panel-title">User Study Participant Distribution (N=45)</text>

  <!-- Chart axes -->
  <line x1="100" y1="380" x2="100" y2="580" stroke="#333" stroke-width="1"/>
  <line x1="100" y1="580" x2="650" y2="580" stroke="#333" stroke-width="1"/>

  <!-- Y-axis labels -->
  <text x="90" y="385" text-anchor="end" class="axis-label">20</text>
  <text x="90" y="430" text-anchor="end" class="axis-label">15</text>
  <text x="90" y="475" text-anchor="end" class="axis-label">10</text>
  <text x="90" y="520" text-anchor="end" class="axis-label">5</text>
  <text x="90" y="585" text-anchor="end" class="axis-label">0</text>

  <!-- Participant bars -->
  <rect x="120" y="445" width="80" height="135" fill="#666" stroke="#333" stroke-width="1"/>
  <text x="160" y="435" text-anchor="middle" class="value-label" font-weight="600">15</text>
  <text x="160" y="600" text-anchor="middle" class="axis-label">Statistical Programmers</text>

  <rect x="220" y="472" width="80" height="108" fill="#666" stroke="#333" stroke-width="1"/>
  <text x="260" y="462" text-anchor="middle" class="value-label" font-weight="600">12</text>
  <text x="260" y="600" text-anchor="middle" class="axis-label">Clinical Data Managers</text>

  <rect x="320" y="508" width="80" height="72" fill="#666" stroke="#333" stroke-width="1"/>
  <text x="360" y="498" text-anchor="middle" class="value-label" font-weight="600">8</text>
  <text x="360" y="600" text-anchor="middle" class="axis-label">Biostatisticians</text>

  <rect x="420" y="490" width="80" height="90" fill="#666" stroke="#333" stroke-width="1"/>
  <text x="460" y="480" text-anchor="middle" class="value-label" font-weight="600">10</text>
  <text x="460" y="600" text-anchor="middle" class="axis-label">Clinical Researchers</text>

  <!-- Statistical note -->
  <text x="400" y="370" text-anchor="middle" class="axis-label" font-size="10px">Participants recruited from 3 pharmaceutical companies and 2 CROs</text>
  
  <!-- Error Analysis (Academic Horizontal Bar Chart) -->
  <rect x="800" y="320" width="700" height="300" rx="12" class="panel-bg"/>
  <text x="1150" y="350" text-anchor="middle" class="panel-title">Automated Error Resolution Rates</text>

  <!-- Chart axes -->
  <line x1="850" y1="380" x2="850" y2="580" stroke="#333" stroke-width="1"/>
  <line x1="850" y1="580" x2="1450" y2="580" stroke="#333" stroke-width="1"/>

  <!-- X-axis labels -->
  <text x="850" y="595" text-anchor="middle" class="axis-label">0%</text>
  <text x="1000" y="595" text-anchor="middle" class="axis-label">50%</text>
  <text x="1150" y="595" text-anchor="middle" class="axis-label">100%</text>

  <!-- Error type bars -->
  <text x="840" y="405" text-anchor="end" class="axis-label">Variable Mismatch</text>
  <rect x="860" y="395" width="174" height="15" fill="#666" stroke="#333" stroke-width="1"/>
  <text x="1040" y="405" class="value-label" font-weight="600">87.3%</text>

  <text x="840" y="430" text-anchor="end" class="axis-label">Data Type Conversion</text>
  <rect x="860" y="420" width="184" height="15" fill="#666" stroke="#333" stroke-width="1"/>
  <text x="1050" y="430" class="value-label" font-weight="600">92.1%</text>

  <text x="840" y="455" text-anchor="end" class="axis-label">Missing Values</text>
  <rect x="860" y="445" width="179" height="15" fill="#666" stroke="#333" stroke-width="1"/>
  <text x="1045" y="455" class="value-label" font-weight="600">89.4%</text>

  <text x="840" y="480" text-anchor="end" class="axis-label">Package Dependencies</text>
  <rect x="860" y="470" width="191" height="15" fill="#666" stroke="#333" stroke-width="1"/>
  <text x="1057" y="480" class="value-label" font-weight="600">95.7%</text>

  <text x="840" y="505" text-anchor="end" class="axis-label">Syntax Errors</text>
  <rect x="860" y="495" width="192" height="15" fill="#666" stroke="#333" stroke-width="1"/>
  <text x="1058" y="505" class="value-label" font-weight="600">96.2%</text>

  <text x="840" y="530" text-anchor="end" class="axis-label">Logic Errors</text>
  <rect x="860" y="520" width="148" height="15" fill="#999" stroke="#333" stroke-width="1"/>
  <text x="1014" y="530" class="value-label" font-weight="600">73.8%</text>

  <!-- Statistical note -->
  <text x="1150" y="370" text-anchor="middle" class="axis-label" font-size="10px">Based on 1,247 execution attempts across 6 error categories</text>
  
  <!-- Comparison Table (Academic Style) -->
  <rect x="50" y="660" width="2150" height="300" rx="12" class="panel-bg"/>
  <text x="1125" y="690" text-anchor="middle" class="panel-title">Performance Comparison with Existing Approaches</text>

  <!-- Table structure with clean lines -->
  <line x1="80" y1="710" x2="2170" y2="710" stroke="#333" stroke-width="2"/>
  <line x1="80" y1="730" x2="2170" y2="730" stroke="#333" stroke-width="1"/>
  <line x1="80" y1="760" x2="2170" y2="760" stroke="#333" stroke-width="1"/>
  <line x1="80" y1="790" x2="2170" y2="790" stroke="#333" stroke-width="1"/>
  <line x1="80" y1="820" x2="2170" y2="820" stroke="#333" stroke-width="1"/>
  <line x1="80" y1="850" x2="2170" y2="850" stroke="#333" stroke-width="2"/>

  <!-- Vertical lines -->
  <line x1="350" y1="710" x2="350" y2="850" stroke="#333" stroke-width="1"/>
  <line x1="550" y1="710" x2="550" y2="850" stroke="#333" stroke-width="1"/>
  <line x1="750" y1="710" x2="750" y2="850" stroke="#333" stroke-width="1"/>
  <line x1="950" y1="710" x2="950" y2="850" stroke="#333" stroke-width="1"/>
  <line x1="1150" y1="710" x2="1150" y2="850" stroke="#333" stroke-width="1"/>

  <!-- Table headers -->
  <text x="215" y="725" text-anchor="middle" class="table-header">Approach</text>
  <text x="450" y="725" text-anchor="middle" class="table-header">Automation (%)</text>
  <text x="650" y="725" text-anchor="middle" class="table-header">NL Support</text>
  <text x="850" y="725" text-anchor="middle" class="table-header">Debugging</text>
  <text x="1050" y="725" text-anchor="middle" class="table-header">Time Reduction (%)</text>
  <text x="1300" y="725" text-anchor="middle" class="table-header">User Rating</text>

  <!-- Table data -->
  <text x="100" y="745" class="table-cell">Manual SAS/R</text>
  <text x="450" y="745" text-anchor="middle" class="table-cell">0</text>
  <text x="650" y="745" text-anchor="middle" class="table-cell">No</text>
  <text x="850" y="745" text-anchor="middle" class="table-cell">No</text>
  <text x="1050" y="745" text-anchor="middle" class="table-cell">0</text>
  <text x="1300" y="745" text-anchor="middle" class="table-cell">2.1 ± 0.4</text>

  <text x="100" y="775" class="table-cell">Template-based</text>
  <text x="450" y="775" text-anchor="middle" class="table-cell">35</text>
  <text x="650" y="775" text-anchor="middle" class="table-cell">Limited</text>
  <text x="850" y="775" text-anchor="middle" class="table-cell">No</text>
  <text x="1050" y="775" text-anchor="middle" class="table-cell">25</text>
  <text x="1300" y="775" text-anchor="middle" class="table-cell">2.8 ± 0.6</text>

  <text x="100" y="805" class="table-cell">Rule-based</text>
  <text x="450" y="805" text-anchor="middle" class="table-cell">45</text>
  <text x="650" y="805" text-anchor="middle" class="table-cell">No</text>
  <text x="850" y="805" text-anchor="middle" class="table-cell">Limited</text>
  <text x="1050" y="805" text-anchor="middle" class="table-cell">35</text>
  <text x="1300" y="805" text-anchor="middle" class="table-cell">3.1 ± 0.5</text>

  <!-- Our system (highlighted with academic styling) -->
  <rect x="85" y="825" width="2080" height="20" fill="#f0f0f0" stroke="#333" stroke-width="1"/>
  <text x="100" y="840" class="table-cell" font-weight="700">Our System</text>
  <text x="450" y="840" text-anchor="middle" class="table-cell" font-weight="700">89</text>
  <text x="650" y="840" text-anchor="middle" class="table-cell" font-weight="700">Yes</text>
  <text x="850" y="840" text-anchor="middle" class="table-cell" font-weight="700">Yes</text>
  <text x="1050" y="840" text-anchor="middle" class="table-cell" font-weight="700">78</text>
  <text x="1300" y="840" text-anchor="middle" class="table-cell" font-weight="700">4.2 ± 0.3</text>

  <!-- Statistical note -->
  <text x="1125" y="880" text-anchor="middle" class="axis-label" font-size="10px">User ratings on 5-point Likert scale (mean ± SD). Statistical significance: p &lt; 0.001 vs. all other approaches.</text>
  
</svg>
